<svg id="Layer_1" data-name="Layer 1" xmlns="http://www.w3.org/2000/svg" viewBox="0 0 1000 1000"><defs><style>.cls-1,.cls-2,.cls-3{fill:#f6a122;stroke:#232020;stroke-miterlimit:10;stroke-width:4px;}.cls-2{font-size:287.13px;font-family:Krungthep, Krungthep;}.cls-3{font-size:122.71px;font-family:AvantGardeLT-Demi, ITC Avant Garde Gothic LT Demi;}</style></defs><title>Occupy Yangon</title><path class="cls-1" d="M193.28,434.45C188,449,176,457.72,160.76,457.72c-16.6,0-34.5-13.33-34.5-34.85,0-19.88,16.49-34.38,34.39-34.38,8.18,0,26,3.74,32.63,23.74H175.73c-1.87-3.28-5.49-9.47-15.08-9.47s-18.83,7-18.83,20.35c0,11.11,7.83,20.34,19.53,20.34,5.14,0,10.29-2.45,14.38-9Z"/><path class="cls-1" d="M268.12,434.45c-5.26,14.5-17.3,23.27-32.51,23.27-16.61,0-34.5-13.33-34.5-34.85,0-19.88,16.49-34.38,34.38-34.38,8.19,0,26,3.74,32.63,23.74H250.58c-1.87-3.28-5.5-9.47-15.09-9.47s-18.82,7-18.82,20.35c0,11.11,7.83,20.34,19.53,20.34,5.14,0,10.29-2.45,14.38-9Z"/><path class="cls-1" d="M335.25,390.71v64.91H321v-6.55h-.24c-2.57,3.51-6.78,8.65-16.72,8.65-11.81,0-18.48-5.84-21.76-10.29-4.79-6.9-4.79-17.42-4.79-22.8V390.71H293v33.1c0,5.26,0,19.64,13.57,19.64,9.82,0,13.1-9.23,13.1-19.53V390.71Z"/><path class="cls-1" d="M347.3,390.71h14.27v7.6h.23a25.57,25.57,0,0,1,21.05-9.82c21.29,0,32.51,18.36,32.51,34.38,0,19.18-14.15,34.85-32.51,34.85-11,0-15.9-4.44-20-8.3v27.83H347.3Zm33.56,52.74c8.31,0,18.95-7,18.95-20.34,0-11.93-9.12-20.35-18.71-20.35s-19.18,7.83-19.18,20.35C361.92,437.49,373.49,443.45,380.86,443.45Z"/><path class="cls-1" d="M599,578.07H585.77v-7.48c-4.55,5.42-13.44,9.43-21,9.43-15.51,0-29.28-12.36-29.28-32.42,0-18.43,13.45-31.77,30.15-31.77,12.25,0,19.51,8.78,19.94,9.65h.22v-7.59H599Zm-31.23-49c-11.81,0-17.89,10.19-17.89,19.19,0,10.19,7.59,18.54,17.89,18.54,10,0,17.57-7.81,17.57-19C585.34,535.35,576.34,529.06,567.77,529.06Z"/><path class="cls-1" d="M610,517.89h13.33v5.21c2.39-2.28,7.38-7.27,16.48-7.27,5.21,0,13.12,2.28,18.11,8.35,5.53,6.62,5.53,16.7,5.53,21.36v32.53H649V548.36c0-5,0-19.3-12.14-19.3a12.33,12.33,0,0,0-9.87,5.31c-2.6,3.69-2.6,10-2.6,15.07v28.63H610Z"/><path class="cls-1" d="M736.69,517.89V567c0,29-21.47,35.56-32.85,35.56-12.36,0-25.05-6.51-30.25-20h16.48a18.38,18.38,0,0,0,14.85,6.72c8.14,0,17.68-5.64,18.44-18.75l-.22-.22c-1.95,2.71-7.48,9.65-19.73,9.65-14.64,0-30.8-12.47-30.8-32.64a31.26,31.26,0,0,1,30.69-31.55c12.36,0,17.56,7,19.19,9.44h.22v-7.38ZM704.6,529.06c-8.67,0-17.56,7.05-17.56,18.43,0,12.25,9.21,19.3,18,19.3s17.24-7.37,17.24-19.41C722.27,538.82,715.33,529.06,704.6,529.06Z"/><path class="cls-1" d="M743.41,548a32.19,32.19,0,0,1,32.1-32.2,31.81,31.81,0,0,1,31.87,32c0,19.73-15.18,32.2-31.87,32.2A32.22,32.22,0,0,1,743.41,548Zm49.55.11c0-10.95-8.46-19.08-17.45-19.08a18.43,18.43,0,0,0-17.68,19c0,11.39,8.57,18.76,17.68,18.76C786,566.79,793,557.68,793,548.14Z"/><path class="cls-1" d="M816,517.89h13.33v5.21c2.39-2.28,7.37-7.27,16.48-7.27,5.21,0,13.12,2.28,18.11,8.35,5.53,6.62,5.53,16.7,5.53,21.36v32.53H855V548.36c0-5,0-19.3-12.14-19.3a12.33,12.33,0,0,0-9.87,5.31c-2.6,3.69-2.6,10-2.6,15.07v28.63H816Z"/><path class="cls-1" d="M502,933.13A432.33,432.33,0,0,1,140,737.86a17.61,17.61,0,0,1,29.42-19.37,398,398,0,0,0,725.1-152.61,17.6,17.6,0,0,1,34.73,5.79A433.25,433.25,0,0,1,502,933.13Z"/><path class="cls-1" d="M118.5,357.41A17.62,17.62,0,0,1,102.26,333a433.23,433.23,0,0,1,689.3-155.12A17.6,17.6,0,0,1,768,204.06,398,398,0,0,0,134.75,346.59,17.61,17.61,0,0,1,118.5,357.41Z"/><path class="cls-1" d="M502,983.52a8.81,8.81,0,0,1,0-17.61,466,466,0,0,0,461.05-398.4A8.81,8.81,0,1,1,980.5,570,483.64,483.64,0,0,1,502,983.52Z"/><path class="cls-1" d="M55,348.6a8.82,8.82,0,0,1-8.29-11.78A483.73,483.73,0,0,1,502,16.48a8.81,8.81,0,0,1,0,17.61A466.1,466.1,0,0,0,63.31,342.76,8.81,8.81,0,0,1,55,348.6Z"/><text class="cls-2" transform="translate(402.8 580.42)">Y</text><text class="cls-3" transform="translate(19.41 460.16)">O</text></svg>